<?xml version="1.0" encoding="UTF-8" standalone="no"?>
<!-- Created with Inkscape (http://www.inkscape.org/) -->

<svg
   width="120mm"
   height="120mm"
   viewBox="0 0 120 120"
   version="1.1"
   id="svg1"
   xml:space="preserve"
   inkscape:version="1.3.2 (091e20e, 2023-11-25)"
   sodipodi:docname="KODAMA.svg"
   xmlns:inkscape="http://www.inkscape.org/namespaces/inkscape"
   xmlns:sodipodi="http://sodipodi.sourceforge.net/DTD/sodipodi-0.dtd"
   xmlns="http://www.w3.org/2000/svg"
   xmlns:svg="http://www.w3.org/2000/svg"><sodipodi:namedview
     id="namedview1"
     pagecolor="#ffffff"
     bordercolor="#000000"
     borderopacity="0.25"
     inkscape:showpageshadow="2"
     inkscape:pageopacity="0.0"
     inkscape:pagecheckerboard="0"
     inkscape:deskcolor="#d1d1d1"
     inkscape:document-units="mm"
     inkscape:zoom="0.5946522"
     inkscape:cx="397.71147"
     inkscape:cy="561.67286"
     inkscape:window-width="1512"
     inkscape:window-height="945"
     inkscape:window-x="0"
     inkscape:window-y="37"
     inkscape:window-maximized="0"
     inkscape:current-layer="layer1" /><defs
     id="defs1" /><g
     inkscape:label="Layer 1"
     inkscape:groupmode="layer"
     id="layer1"><path
       style="fill:#000000"
       d="m 7.198836,115.92324 c -0.435191,-0.29409 -0.937886,-0.90112 -1.117088,-1.34896 -0.531268,-1.32763 0.04151,-1.96061 2.5324069,-2.79856 5.1886781,-1.74551 11.5999131,-4.44997 12.7059581,-5.35979 0.859245,-0.7068 1.283653,-1.26895 1.671937,-2.21457 0.158242,-0.38538 1.309921,-1.80601 2.559283,-3.15694 5.328104,-5.761223 7.994075,-9.237541 10.471461,-13.654351 2.870076,-5.11691 4.087309,-9.01047 4.746757,-15.18346 l 0.422949,-3.95915 -1.173874,-1.25948 c -1.584857,-1.70045 -2.442966,-3.15521 -3.680687,-6.23998 -2.287572,-5.7013 -2.528923,-10.71659 -0.827039,-17.18601 1.85014,-7.03299 5.011212,-11.59097 11.249019,-16.220074 2.295035,-1.70316 2.738208,-2.133854 2.367645,-2.300957 -0.613759,-0.276794 -3.431057,-5.466948 -3.421579,-6.303389 0.0041,-0.365606 -0.01593,-0.670907 -0.0446,-0.678451 -0.02868,-0.0075 -0.627738,0.09867 -1.331248,0.236044 -2.732375,0.533531 -5.653658,-1.059355 -6.321827,-3.447099 -0.190267,-0.679928 -0.326492,-1.875969 -0.302737,-2.657872 0.0367,-1.207299 0.161212,-1.608771 0.825924,-2.6628957 1.51358,-2.4002965 4.155252,-3.4676999 6.836457,-2.7623662 4.055467,1.0668544 5.250471,6.3930759 2.185282,9.7399759 -0.633339,0.691547 -1.16031,1.290756 -1.171049,1.331577 -0.01074,0.04081 0.225333,0.208973 0.524599,0.373689 1.267764,0.697771 3.09304,4.51683 3.127413,6.543562 0.0071,0.41647 0.35749,0.360604 2.376466,-0.378868 5.44944,-1.995901 10.22595,-2.53086 15.12896,-1.694412 3.14874,0.537175 4.56131,0.991323 8.17178,2.627229 1.76204,0.798381 2.6139,1.391354 4.5092,3.138825 4.68985,4.324052 7.09251,7.587512 8.73626,11.866182 1.30902,3.40735 1.90054,6.55152 1.85684,9.86977 -0.0899,6.82667 -2.29804,12.61345 -6.37394,16.70406 l -1.6829,1.68895 0.19621,1.35435 c 0.10792,0.74489 0.17397,1.77939 0.1468,2.29889 -0.0897,1.71578 0.74419,7.95516 1.38183,10.33868 0.92071,3.44169 2.24597,6.46153 4.87151,11.10065 3.70411,6.544821 7.98834,11.963551 11.086505,14.022301 0.83106,0.55225 3.22073,1.94133 5.31039,3.08685 4.01592,2.2015 4.98425,2.89675 5.06537,3.63691 0.0849,0.77503 -0.26078,1.71081 -0.92185,2.49518 -1.04425,1.23901 -1.85561,1.1412 -6.67297,-0.80444 -2.27754,-0.91987 -4.572961,-1.90239 -5.100918,-2.1834 -0.527957,-0.281 -2.770507,-1.11621 -4.983447,-1.85601 -9.03806,-3.0215 -16.49975,-6.92153 -21.67765,-11.33039 -2.06832,-1.761104 -2.56595,-2.070411 -2.67347,-1.661694 -0.0328,0.1247 -0.71779,0.809567 -1.52219,1.521914 -1.81241,1.60503 -1.80024,1.64533 1.27042,4.20997 3.14035,2.62284 5.462,4.02792 10.3262,6.24953 10.30441,4.7063 10.89465,5.02706 10.68901,5.80875 -0.30659,1.16544 -3.00263,1.73197 -6.77079,1.42278 -2.21406,-0.18168 -2.97601,-0.35644 -5.01438,-1.15008 -4.39772,-1.71228 -13.11226,-7.23601 -15.32503,-9.71382 -0.98617,-1.10428 -1.07305,-1.12832 -1.74639,-0.4832 -1.72795,1.65552 -9.109,6.02777 -13.288226,7.87143 -6.367378,2.80895 -9.556945,3.51996 -15.252079,3.39995 -2.839295,-0.0598 -3.013429,-0.11842 -3.663687,-1.23293 -1.169762,-2.00491 0.006,-2.91693 4.738745,-3.6758 6.788044,-1.08842 9.773068,-2.09381 16.698892,-5.6244 3.324405,-1.69468 7.202685,-4.58592 7.298475,-5.44097 0.0327,-0.2919 -0.40812,-0.98221 -1.0191,-1.59587 l -1.07672,-1.081427 -0.53523,0.503007 c -1.36103,1.27914 -10.957789,6.09482 -15.468539,7.76216 -3.249676,1.2012 -8.931496,2.75837 -12.724197,3.48721 -1.163913,0.22367 -3.391242,0.80755 -4.949617,1.29752 -1.558376,0.48996 -3.703206,1.15526 -4.766293,1.47844 -1.063083,0.32318 -2.709129,0.9644 -3.657874,1.42494 -1.817759,0.88235 -3.6745264,1.32899 -4.5270371,1.08894 -0.2801907,-0.0789 -0.8654969,-0.38407 -1.3006999,-0.67814 z m 28.635706,-12.93027 c 2.172124,-0.72315 5.203172,-1.86919 6.735657,-2.54674 3.245563,-1.434934 9.030439,-4.687983 9.150896,-5.145893 0.0456,-0.173227 -0.275115,-0.733504 -0.712634,-1.245078 -0.779093,-0.91093 -4.541448,-7.34295 -5.652722,-9.66373 -0.30913,-0.64559 -0.673665,-1.20316 -0.810074,-1.23905 -0.136409,-0.0359 -0.456743,0.46464 -0.711851,1.11227 -1.056662,2.68249 -4.791487,9.12101 -6.570096,11.326278 -1.00448,1.245441 -2.020302,2.459635 -2.257381,2.698215 -0.237081,0.238567 -1.086243,1.119754 -1.887024,1.958168 -0.800784,0.83843 -1.656562,1.65976 -1.901731,1.82519 -0.537323,0.36257 -2.459866,2.52001 -2.549597,2.8611 -0.08476,0.32221 2.349439,-0.33699 7.166557,-1.94073 z m 27.628533,-4.132401 c 0.36935,-0.16981 0.75694,-0.467977 0.86131,-0.662577 0.10434,-0.1946 0.46936,-0.805987 0.81108,-1.358654 0.76523,-1.237531 0.65267,-1.495751 -1.36898,-3.140409 -1.69098,-1.37565 -2.91122,-2.86589 -6.62351,-8.08907 -3.09745,-4.35811 -5.08771,-7.51861 -5.742134,-9.11842 -0.37526,-0.91739 -0.61118,-1.12342 -1.816924,-1.58674 -0.762123,-0.29282 -1.410525,-0.43796 -1.440901,-0.32249 -0.09183,0.34909 1.03155,3.91845 1.878696,5.96924 1.945513,4.70978 4.786513,9.42332 7.598013,12.60601 0.57973,0.65625 1.58102,1.956831 2.22511,2.890175 2.06245,2.988682 2.49853,3.327692 3.61826,2.812885 z m 26.87207,5.653181 c 0.0352,-0.13365 -0.90431,-1.3594 -2.08769,-2.72387 -1.20066,-1.38439 -2.8656,-3.732898 -3.76706,-5.313689 -1.96353,-3.443262 -4.57992,-9.265972 -5.33967,-11.883312 -0.62188,-2.14247 -1.01711,-3.15924 -1.17589,-3.02522 -0.0581,0.0489 -0.89173,1.29804 -1.85265,2.77568 -0.96092,1.47764 -2.3818,3.56681 -3.15752,4.64261 -0.77571,1.0758 -1.58833,2.30334 -1.80582,2.72787 l -0.39543,0.77187 2.62898,2.299081 c 3.35278,2.932065 5.63855,4.598956 8.92973,6.51203 3.21847,1.87081 7.88492,3.7419 8.02302,3.21695 z M 68.736475,85.383799 c 1.95543,-2.74807 5.46222,-9.47784 5.00188,-9.59894 -0.0772,-0.0203 -0.71479,0.28302 -1.41688,0.67406 -0.70211,0.39104 -1.88928,0.77074 -2.63817,0.84376 -0.74888,0.073 -2.64243,0.32168 -4.20789,0.55256 -1.56545,0.23086 -3.44793,0.34447 -4.18327,0.25246 -0.73536,-0.092 -1.4989,-0.11789 -1.69678,-0.0575 -0.53242,0.16255 0.88294,2.55306 3.36752,5.68769 2.39948,3.02728 3.56829,4.19879 3.9607,3.96985 0.14974,-0.0874 0.96554,-1.13316 1.81289,-2.32398 z m -5.21764,-13.09081 c 11.25034,-0.82815 19.88071,-8.81107 21.36802,-19.76501 0.63401,-4.66948 -0.0924,-8.58167 -2.33185,-12.55819 -3.27912,-5.82268 -7.97815,-9.44356 -14.44463,-11.130442 -5.76194,-1.503051 -11.68123,-0.661146 -17.278006,2.457562 -3.415868,1.90343 -7.055608,6.04766 -8.695904,9.90121 -1.396617,3.28108 -2.212566,7.58669 -1.993214,10.51785 0.578411,7.72928 5.167942,14.48217 12.273764,18.05924 2.50426,1.26064 8.79589,2.68753 11.10182,2.51778 z m -4.40521,-11.01956 c -0.63816,-0.48791 -0.98216,-2.0011 -0.64837,-2.85212 0.27655,-0.70511 0.33659,-0.71736 4.15754,-0.84816 1.07365,-0.0368 2.3003,0.0248 2.72588,0.13672 1.66625,0.43833 1.67945,2.63429 0.0212,3.52757 -1.4338,0.77238 -5.26428,0.79443 -6.25626,0.036 z m -10.72335,-7.90857 c -1.480232,-1.34582 -1.879169,-2.73886 -1.354985,-4.73145 0.436992,-1.66115 1.401392,-2.6907 2.995328,-3.19765 2.647967,-0.84221 5.334827,0.61243 5.939377,3.21548 0.16404,0.70633 0.19602,1.67283 0.0711,2.14778 -0.25954,0.9866 -1.24404,2.36682 -2.07536,2.90954 -1.56545,1.02198 -4.255763,0.85614 -5.57544,-0.3437 z m 23.43429,0.86844 c -1.93715,-1.19442 -2.56345,-2.6382 -2.17702,-5.01849 0.25162,-1.54994 1.4413,-3.00776 2.86101,-3.50587 1.11281,-0.39043 3.13181,-0.0127 4.27315,0.79954 1.43037,1.01789 2.25291,3.20349 1.82203,4.84139 -0.46034,1.7499 -2.69486,3.3821 -4.66709,3.40905 -1.15279,0.0157 -1.2891,-0.0182 -2.11208,-0.52563 z M 44.699907,14.39876 c 1.408685,-0.821899 1.526608,-2.77433 0.227852,-3.77248 -2.062634,-1.5852344 -4.809381,0.644956 -3.518761,2.857008 0.673348,1.15409 2.168882,1.570118 3.290911,0.915463 z M 20.754879,86.635289 c -0.825921,-0.65187 -1.838496,-2.60076 -2.017216,-3.88252 -0.149943,-1.07539 0.478284,-3.71576 1.086609,-4.56686 0.621167,-0.86906 2.799993,-2.20277 3.835703,-2.34791 1.223073,-0.1714 3.068407,0.36816 4.644476,1.35799 l 1.291364,0.81104 0.469127,2.11664 c 0.350552,1.58165 0.387381,2.4274 0.145701,3.3461 -0.412345,1.56746 -1.455814,3.10591 -2.56915,3.78785 -1.573936,0.96407 -5.303677,0.62703 -6.886614,-0.62233 z m 4.801035,-2.58388 c 1.379492,-0.80487 1.439302,-2.70497 0.120136,-3.81677 -1.499168,-1.26351 -3.176462,-0.73221 -3.675315,1.16409 -0.359825,1.36781 0.305332,2.46928 1.715122,2.84015 0.770217,0.20261 1.256356,0.15308 1.840057,-0.18747 z m 67.353261,5.97589 c -2.15847,-2.25462 -1.6048,-7.0722 1.02591,-8.92676 1.26265,-0.89014 2.30817,-1.03692 4.075007,-0.57212 3.261718,0.85805 5.058188,3.88746 4.246438,7.16084 -0.41394,1.66902 -1.51775,2.83979 -3.426461,3.63415 -0.982044,0.40871 -1.411974,0.41425 -3.099084,0.0399 -1.70667,-0.37865 -2.06996,-0.55074 -2.82181,-1.33601 z m 5.254817,-2.36618 c 0.977994,-0.68947 1.060204,-0.8563 0.863884,-1.75322 -0.400467,-1.82952 -2.081971,-2.61637 -3.482011,-1.62939 -1.01354,0.71452 -1.06271,0.83283 -0.81196,1.95408 0.38643,1.72799 2.03273,2.41362 3.430087,1.42853 z M 14.913727,68.097799 c -3.368273,-2.95148 -2.210099,-8.17335 2.173643,-9.80033 1.096893,-0.40711 1.598099,-0.42171 3.166446,-0.0922 l 1.863278,0.39141 1.047444,1.19057 c 2.467221,2.80434 2.301988,6.35691 -0.405373,8.71575 -1.97963,1.72478 -5.629776,1.53624 -7.845428,-0.40523 z m 5.032417,-2.38105 c 1.719072,-1.2119 1.457995,-3.42566 -0.463626,-3.93117 -1.133708,-0.29824 -2.116839,0.0933 -2.692793,1.07244 -0.551335,0.93729 -0.442841,1.80327 0.315137,2.51512 0.988019,0.92792 1.862439,1.03366 2.841282,0.34361 z m 80.429856,8.54167 c -1.411984,-0.82013 -2.728725,-3.20481 -2.781625,-5.03763 -0.0537,-1.86029 0.0202,-2.14059 0.928764,-3.52664 1.558111,-2.37582 3.717531,-3.20886 6.435691,-2.48272 1.85891,0.49625 3.13707,1.52029 3.86563,3.09585 2.3717,5.1291 -3.61209,10.76037 -8.44879,7.95106 z m 4.69914,-3.6712 c 1.4162,-1.13127 0.76778,-3.31903 -1.1318,-3.81875 -2.26879,-0.59684 -3.65914,1.00495 -2.5389,2.92499 0.48816,0.83667 0.72085,0.99362 1.77738,1.19887 0.95773,0.18608 1.35947,0.12133 1.89332,-0.30511 z M 16.555895,50.090239 c -1.603451,-0.98868 -2.875191,-2.79016 -3.265051,-4.6251 -0.240561,-1.13224 0.347867,-3.51429 1.115684,-4.51662 0.632629,-0.8258 2.677982,-1.96552 4.096788,-2.28281 1.20315,-0.26906 3.398522,0.48729 4.644625,1.60017 0.908018,0.81093 1.579524,2.35376 1.841159,4.23015 0.616333,4.42025 -4.660327,7.92054 -8.433234,5.5942 z m 3.812026,-3.51687 c 2.34875,-1.37038 0.619714,-4.87816 -2.086345,-4.23267 -0.849416,0.20262 -1.782188,1.50736 -1.690848,2.36513 0.175749,1.6505 2.326544,2.71392 3.777193,1.86754 z m 72.440764,19.75235 c -1.68556,-0.91703 -2.86356,-1.92886 -2.74967,-2.36179 0.13564,-0.51563 0.87514,-0.56157 1.80785,-0.11234 1.48044,0.71305 3.89367,2.11466 4.51634,2.62313 0.66948,0.54668 0.63754,0.82057 -0.11668,1.00046 -0.75593,0.18033 -1.41845,-0.0399 -3.45784,-1.14946 z M 27.162113,47.478799 c -0.157826,-0.11504 -0.22723,-0.43621 -0.154234,-0.71369 0.155063,-0.58945 2.825547,-1.13394 4.020131,-0.81969 1.622205,0.42675 1.34807,1.93738 -0.358014,1.97285 -1.465019,0.0305 -3.153403,-0.18105 -3.507883,-0.43947 z m 76.343617,7.54933 c -2.45242,-1.67582 -3.32401,-4.61653 -2.18884,-7.38504 0.63011,-1.53675 1.28845,-2.26614 2.66695,-2.95479 2.14401,-1.07106 4.77306,-0.59708 6.86468,1.23759 3.3435,2.93279 1.23676,9.04142 -3.40716,9.8793 -1.69064,0.30505 -2.62086,0.12137 -3.93563,-0.77706 z m 3.83286,-2.68515 c 0.66223,-0.15797 1.57595,-1.50288 1.5146,-2.22936 -0.0983,-1.16368 -0.7433,-1.94721 -1.84074,-2.23591 -1.29372,-0.34033 -2.41076,0.23861 -2.76094,1.43093 -0.47806,1.62781 1.36968,3.44399 3.08708,3.03434 z m -13.578775,-1.96025 c -0.016,-0.32031 0.0917,-0.64451 0.23946,-0.72042 0.90681,-0.46586 3.925117,-0.06 4.549494,0.61174 0.722567,0.7774 -2.021854,1.40619 -3.945034,0.90387 -0.60362,-0.15775 -0.8223,-0.36369 -0.84394,-0.7952 z M 23.133692,30.769523 c -2.595272,-2.114229 -2.638933,-6.742173 -0.08513,-9.02281 1.611829,-1.439425 3.105497,-1.819486 5.322719,-1.354358 1.679377,0.352344 2.012869,0.511422 2.865245,1.367089 0.530557,0.532604 1.126355,1.396 1.324001,1.91865 0.37718,0.997405 0.418925,3.46322 0.08085,4.775963 -0.215977,0.840654 -1.421421,2.277432 -2.478189,2.955221 -1.817563,1.165751 -5.189954,0.858831 -7.029496,-0.639755 z m 5.23932,-2.690015 c 1.509649,-1.138149 1.035223,-3.899848 -0.750182,-4.369527 -0.84619,-0.222604 -2.232938,0.313731 -2.776123,1.073695 -1.382105,1.933683 1.616114,4.735945 3.526305,3.295832 z m 6.038385,3.802244 c -0.816652,-0.756589 -1.459519,-1.471815 -1.42859,-1.589385 0.03093,-0.117579 0.335582,-0.280411 0.677,-0.36185 0.672549,-0.160425 3.625824,0.837007 4.285432,1.44735 0.987366,0.913632 -0.0351,2.433422 -1.386965,2.061592 -0.364186,-0.0999 -1.330224,-0.80112 -2.146877,-1.557707 z m 55.584578,3.833327 c -0.75733,-1.00234 -0.47792,-1.59018 1.00668,-2.11792 2.15387,-0.76567 2.59269,-0.82069 2.91798,-0.36585 0.46858,0.65519 0.10975,1.31206 -1.17559,2.15206 -1.72128,1.1249 -2.11399,1.17228 -2.74907,0.33171 z m 7.86299,-0.1273 c -2.77108,-1.47301 -3.47255,-6.300948 -1.29691,-8.926121 1.423577,-1.717737 3.025958,-2.298037 5.347785,-1.936689 0.81197,0.12633 1.86768,0.48822 2.49119,0.853631 2.04989,1.201704 3.08133,4.582398 2.06068,6.754239 -0.54146,1.15216 -1.85561,2.82469 -2.60261,3.31237 -1.49122,0.97352 -4.107787,0.94848 -6.000135,-0.0574 z m 4.045515,-2.75283 c 0.63636,-0.27602 0.8723,-0.57567 1.08251,-1.374719 0.34149,-1.298134 0.17263,-1.989833 -0.67193,-2.752502 -2.02902,-1.83226 -4.612675,0.606852 -3.274394,3.091191 0.637947,1.18425 1.665314,1.55591 2.863814,1.03603 z m -23.987205,-7.29049 c -0.28763,-0.492997 0.39112,-1.912462 1.88725,-3.946768 1.73074,-2.353314 2.42058,-2.812615 2.92526,-1.947639 l 0.30886,0.529364 -1.51196,2.547888 c -0.83158,1.401337 -1.69779,2.649318 -1.9249,2.773307 -0.54161,0.295647 -1.52269,0.321191 -1.68451,0.04385 z m -14.58121,-6.558547 c -0.25853,-2.866459 -0.0722,-3.769517 0.84793,-4.109331 0.37041,-0.136795 0.75374,-0.227608 0.85185,-0.201799 0.33663,0.08856 0.35641,4.737267 0.0255,5.99514 -0.0663,0.251948 -0.43326,0.511866 -0.81552,0.577599 l -0.69501,0.119514 z m 18.68432,-0.649201 c -1.75814,-1.893369 -2.13716,-4.547785 -0.99375,-6.959711 0.48727,-1.027883 2.01795,-2.1320124 3.72668,-2.6881841 1.65251,-0.5378717 3.80649,0.02597 5.38094,1.4083021 2.62934,2.309027 1.96701,7.127323 -1.25986,9.16523 -2.09688,1.324265 -5.1471,0.912219 -6.85394,-0.925888 z m 4.08558,-1.96976 c 0.93655,-0.07338 1.90943,-0.794638 2.11235,-1.566003 0.3836,-1.458169 -1.42437,-3.031265 -3.06277,-2.664863 -1.87617,0.419567 -2.20946,2.78482 -0.55459,3.935788 0.51417,0.357606 0.56922,0.368395 1.50501,0.295098 z m -24.28542,-3.706814 c -2.12136,-1.580457 -2.95472,-3.4911524 -2.59554,-5.9509269 0.25993,-1.7800911 0.88713,-2.8319643 2.20034,-3.6901783 1.73564,-1.134269 3.20443,-1.377982 5.2641,-0.87344 1.52412,0.373337 1.82036,0.541847 2.62317,1.491869 2.65313,3.1396773 1.22999,8.0426912 -2.78615,9.5989002 -1.45057,0.562083 -3.51779,0.308955 -4.70592,-0.576224 z m 3.66389,-2.8689797 c 1.33276,-0.5596247 2.01126,-2.2578648 1.33229,-3.3346402 -0.63111,-1.0008724 -1.54144,-1.4150991 -2.59306,-1.1799254 -1.67223,0.373963 -2.32439,1.7513371 -1.46973,3.1040815 0.8112,1.2839641 1.8069,1.7983028 2.7305,1.4104841 z"
       id="path1"
       sodipodi:nodetypes="sssssssscsssssccsssssssscssssssscsssssssssssssssssssssssssssscsssssssssssssssssssssscscssssssssccsssscssscssscssssscsscccsscsssscssccssssssscsssssssscsssssssssssscssssssssscsscsscssssscsccssccssssscscccccssssscscsssccssssssssssssscssssssssssssssscsssscsscsssssssssscssssssssccsssssssssssscscssssssscscsscsccssssssssssssssssss" /><path
       style="fill:#000000"
       d="m 7.198836,115.92324 c -0.435191,-0.29409 -0.937886,-0.90112 -1.117088,-1.34896 -0.531268,-1.32763 0.04151,-1.96061 2.5324069,-2.79856 5.1886781,-1.74551 11.5999131,-4.44997 12.7059581,-5.35979 0.859245,-0.7068 1.283653,-1.26895 1.671937,-2.21457 0.158242,-0.38538 1.309921,-1.80601 2.559283,-3.15694 5.328104,-5.761223 7.994075,-9.237541 10.471461,-13.654351 2.870076,-5.11691 4.087309,-9.01047 4.746757,-15.18346 l 0.422949,-3.95915 -1.173874,-1.25948 c -1.584857,-1.70045 -2.442966,-3.15521 -3.680687,-6.23998 -2.287572,-5.7013 -2.528923,-10.71659 -0.827039,-17.18601 1.85014,-7.03299 5.011212,-11.59097 11.249019,-16.220074 2.295035,-1.70316 2.738208,-2.133854 2.367645,-2.300957 -0.613759,-0.276794 -3.431057,-5.466948 -3.421579,-6.303389 0.0041,-0.365606 -0.01593,-0.670907 -0.0446,-0.678451 -0.02868,-0.0075 -0.627738,0.09867 -1.331248,0.236044 -2.732375,0.533531 -5.653658,-1.059355 -6.321827,-3.447099 -0.190267,-0.679928 -0.326492,-1.875969 -0.302737,-2.657872 0.0367,-1.207299 0.161212,-1.608771 0.825924,-2.6628957 1.51358,-2.4002965 4.155252,-3.4676999 6.836457,-2.7623662 4.055467,1.0668544 5.250471,6.3930759 2.185282,9.7399759 -0.633339,0.691547 -1.16031,1.290756 -1.171049,1.331577 -0.01074,0.04081 0.225333,0.208973 0.524599,0.373689 1.267764,0.697771 3.09304,4.51683 3.127413,6.543562 0.0071,0.41647 0.35749,0.360604 2.376466,-0.378868 5.44944,-1.995901 10.22595,-2.53086 15.12896,-1.694412 3.14874,0.537175 4.56131,0.991323 8.17178,2.627229 1.76204,0.798381 2.6139,1.391354 4.5092,3.138825 4.68985,4.324052 7.09251,7.587512 8.73626,11.866182 1.30902,3.40735 1.90054,6.55152 1.85684,9.86977 -0.0899,6.82667 -2.29804,12.61345 -6.37394,16.70406 l -1.6829,1.68895 0.19621,1.35435 c 0.10792,0.74489 0.17397,1.77939 0.1468,2.29889 -0.0897,1.71578 0.74419,7.95516 1.38183,10.33868 0.92071,3.44169 2.24597,6.46153 4.87151,11.10065 3.70411,6.544821 7.98834,11.963551 11.086505,14.022301 0.83106,0.55225 3.22073,1.94133 5.31039,3.08685 4.01592,2.2015 4.98425,2.89675 5.06537,3.63691 0.0849,0.77503 -0.26078,1.71081 -0.92185,2.49518 -1.04425,1.23901 -1.85561,1.1412 -6.67297,-0.80444 -2.27754,-0.91987 -4.572961,-1.90239 -5.100918,-2.1834 -0.527957,-0.281 -2.770507,-1.11621 -4.983447,-1.85601 -9.03806,-3.0215 -16.49975,-6.92153 -21.67765,-11.33039 -2.06832,-1.761104 -2.56595,-2.070411 -2.67347,-1.661694 -0.0328,0.1247 -0.71779,0.809567 -1.52219,1.521914 -1.81241,1.60503 -1.80024,1.64533 1.27042,4.20997 3.14035,2.62284 5.462,4.02792 10.3262,6.24953 10.30441,4.7063 10.89465,5.02706 10.68901,5.80875 -0.30659,1.16544 -3.00263,1.73197 -6.77079,1.42278 -2.21406,-0.18168 -2.97601,-0.35644 -5.01438,-1.15008 -4.39772,-1.71228 -13.11226,-7.23601 -15.32503,-9.71382 -0.98617,-1.10428 -1.07305,-1.12832 -1.74639,-0.4832 -1.72795,1.65552 -9.109,6.02777 -13.288226,7.87143 -6.367378,2.80895 -9.556945,3.51996 -15.252079,3.39995 -2.839295,-0.0598 -3.013429,-0.11842 -3.663687,-1.23293 -1.169762,-2.00491 0.006,-2.91693 4.738745,-3.6758 6.788044,-1.08842 9.773068,-2.09381 16.698892,-5.6244 3.324405,-1.69468 7.202685,-4.58592 7.298475,-5.44097 0.0327,-0.2919 -0.40812,-0.98221 -1.0191,-1.59587 l -1.07672,-1.081427 -0.53523,0.503007 c -1.36103,1.27914 -10.957789,6.09482 -15.468539,7.76216 -3.249676,1.2012 -8.931496,2.75837 -12.724197,3.48721 -1.163913,0.22367 -3.391242,0.80755 -4.949617,1.29752 -1.558376,0.48996 -3.703206,1.15526 -4.766293,1.47844 -1.063083,0.32318 -2.709129,0.9644 -3.657874,1.42494 -1.817759,0.88235 -3.6745264,1.32899 -4.5270371,1.08894 -0.2801907,-0.0789 -0.8654969,-0.38407 -1.3006999,-0.67814 z m 28.635706,-12.93027 c 2.172124,-0.72315 5.203172,-1.86919 6.735657,-2.54674 3.245563,-1.434934 9.030439,-4.687983 9.150896,-5.145893 0.0456,-0.173227 -0.275115,-0.733504 -0.712634,-1.245078 -0.779093,-0.91093 -4.541448,-7.34295 -5.652722,-9.66373 -0.30913,-0.64559 -0.673665,-1.20316 -0.810074,-1.23905 -0.136409,-0.0359 -0.456743,0.46464 -0.711851,1.11227 -1.056662,2.68249 -4.791487,9.12101 -6.570096,11.326278 -1.00448,1.245441 -2.020302,2.459635 -2.257381,2.698215 -0.237081,0.238567 -1.086243,1.119754 -1.887024,1.958168 -0.800784,0.83843 -1.656562,1.65976 -1.901731,1.82519 -0.537323,0.36257 -2.459866,2.52001 -2.549597,2.8611 -0.08476,0.32221 2.349439,-0.33699 7.166557,-1.94073 z m 27.628533,-4.132401 c 0.36935,-0.16981 0.75694,-0.467977 0.86131,-0.662577 0.10434,-0.1946 0.46936,-0.805987 0.81108,-1.358654 0.76523,-1.237531 0.65267,-1.495751 -1.36898,-3.140409 -1.69098,-1.37565 -2.91122,-2.86589 -6.62351,-8.08907 -3.09745,-4.35811 -5.08771,-7.51861 -5.742134,-9.11842 -0.37526,-0.91739 -0.61118,-1.12342 -1.816924,-1.58674 -0.762123,-0.29282 -1.410525,-0.43796 -1.440901,-0.32249 -0.09183,0.34909 1.03155,3.91845 1.878696,5.96924 1.945513,4.70978 4.786513,9.42332 7.598013,12.60601 0.57973,0.65625 1.58102,1.956831 2.22511,2.890175 2.06245,2.988682 2.49853,3.327692 3.61826,2.812885 z m 26.87207,5.653181 c 0.0352,-0.13365 -0.90431,-1.3594 -2.08769,-2.72387 -1.20066,-1.38439 -2.8656,-3.732898 -3.76706,-5.313689 -1.96353,-3.443262 -4.57992,-9.265972 -5.33967,-11.883312 -0.62188,-2.14247 -1.01711,-3.15924 -1.17589,-3.02522 -0.0581,0.0489 -0.89173,1.29804 -1.85265,2.77568 -0.96092,1.47764 -2.3818,3.56681 -3.15752,4.64261 -0.77571,1.0758 -1.58833,2.30334 -1.80582,2.72787 l -0.39543,0.77187 2.62898,2.299081 c 3.35278,2.932065 5.63855,4.598956 8.92973,6.51203 3.21847,1.87081 7.88492,3.7419 8.02302,3.21695 z M 68.736475,85.383799 c 1.95543,-2.74807 5.46222,-9.47784 5.00188,-9.59894 -0.0772,-0.0203 -0.71479,0.28302 -1.41688,0.67406 -0.70211,0.39104 -1.88928,0.77074 -2.63817,0.84376 -0.74888,0.073 -2.64243,0.32168 -4.20789,0.55256 -1.56545,0.23086 -3.44793,0.34447 -4.18327,0.25246 -0.73536,-0.092 -1.4989,-0.11789 -1.69678,-0.0575 -0.53242,0.16255 0.88294,2.55306 3.36752,5.68769 2.39948,3.02728 3.56829,4.19879 3.9607,3.96985 0.14974,-0.0874 0.96554,-1.13316 1.81289,-2.32398 z m -5.21764,-13.09081 c 11.25034,-0.82815 19.88071,-8.81107 21.36802,-19.76501 0.63401,-4.66948 -0.0924,-8.58167 -2.33185,-12.55819 -3.27912,-5.82268 -7.97815,-9.44356 -14.44463,-11.130442 -5.76194,-1.503051 -11.68123,-0.661146 -17.278006,2.457562 -3.415868,1.90343 -7.055608,6.04766 -8.695904,9.90121 -1.396617,3.28108 -2.212566,7.58669 -1.993214,10.51785 0.578411,7.72928 5.167942,14.48217 12.273764,18.05924 2.50426,1.26064 8.79589,2.68753 11.10182,2.51778 z m -4.40521,-11.01956 c -0.63816,-0.48791 -0.98216,-2.0011 -0.64837,-2.85212 0.27655,-0.70511 0.33659,-0.71736 4.15754,-0.84816 1.07365,-0.0368 2.3003,0.0248 2.72588,0.13672 1.66625,0.43833 1.67945,2.63429 0.0212,3.52757 -1.4338,0.77238 -5.26428,0.79443 -6.25626,0.036 z m -10.72335,-7.90857 c -1.480232,-1.34582 -1.879169,-2.73886 -1.354985,-4.73145 0.436992,-1.66115 1.401392,-2.6907 2.995328,-3.19765 2.647967,-0.84221 5.334827,0.61243 5.939377,3.21548 0.16404,0.70633 0.19602,1.67283 0.0711,2.14778 -0.25954,0.9866 -1.24404,2.36682 -2.07536,2.90954 -1.56545,1.02198 -4.255763,0.85614 -5.57544,-0.3437 z m 23.43429,0.86844 c -1.93715,-1.19442 -2.56345,-2.6382 -2.17702,-5.01849 0.25162,-1.54994 1.4413,-3.00776 2.86101,-3.50587 1.11281,-0.39043 3.13181,-0.0127 4.27315,0.79954 1.43037,1.01789 2.25291,3.20349 1.82203,4.84139 -0.46034,1.7499 -2.69486,3.3821 -4.66709,3.40905 -1.15279,0.0157 -1.2891,-0.0182 -2.11208,-0.52563 z M 44.699907,14.39876 c 1.408685,-0.821899 1.526608,-2.77433 0.227852,-3.77248 -2.062634,-1.5852344 -4.809381,0.644956 -3.518761,2.857008 0.673348,1.15409 2.168882,1.570118 3.290911,0.915463 z M 20.754879,86.635289 c -0.825921,-0.65187 -1.838496,-2.60076 -2.017216,-3.88252 -0.149943,-1.07539 0.478284,-3.71576 1.086609,-4.56686 0.621167,-0.86906 2.799993,-2.20277 3.835703,-2.34791 1.223073,-0.1714 3.068407,0.36816 4.644476,1.35799 l 1.291364,0.81104 0.469127,2.11664 c 0.350552,1.58165 0.387381,2.4274 0.145701,3.3461 -0.412345,1.56746 -1.455814,3.10591 -2.56915,3.78785 -1.573936,0.96407 -5.303677,0.62703 -6.886614,-0.62233 z m 4.801035,-2.58388 c 1.379492,-0.80487 1.439302,-2.70497 0.120136,-3.81677 -1.499168,-1.26351 -3.176462,-0.73221 -3.675315,1.16409 -0.359825,1.36781 0.305332,2.46928 1.715122,2.84015 0.770217,0.20261 1.256356,0.15308 1.840057,-0.18747 z m 67.353261,5.97589 c -2.15847,-2.25462 -1.6048,-7.0722 1.02591,-8.92676 1.26265,-0.89014 2.30817,-1.03692 4.075007,-0.57212 3.261718,0.85805 5.058188,3.88746 4.246438,7.16084 -0.41394,1.66902 -1.51775,2.83979 -3.426461,3.63415 -0.982044,0.40871 -1.411974,0.41425 -3.099084,0.0399 -1.70667,-0.37865 -2.06996,-0.55074 -2.82181,-1.33601 z m 5.254817,-2.36618 c 0.977994,-0.68947 1.060204,-0.8563 0.863884,-1.75322 -0.400467,-1.82952 -2.081971,-2.61637 -3.482011,-1.62939 -1.01354,0.71452 -1.06271,0.83283 -0.81196,1.95408 0.38643,1.72799 2.03273,2.41362 3.430087,1.42853 z M 14.913727,68.097799 c -3.368273,-2.95148 -2.210099,-8.17335 2.173643,-9.80033 1.096893,-0.40711 1.598099,-0.42171 3.166446,-0.0922 l 1.863278,0.39141 1.047444,1.19057 c 2.467221,2.80434 2.301988,6.35691 -0.405373,8.71575 -1.97963,1.72478 -5.629776,1.53624 -7.845428,-0.40523 z m 5.032417,-2.38105 c 1.719072,-1.2119 1.457995,-3.42566 -0.463626,-3.93117 -1.133708,-0.29824 -2.116839,0.0933 -2.692793,1.07244 -0.551335,0.93729 -0.442841,1.80327 0.315137,2.51512 0.988019,0.92792 1.862439,1.03366 2.841282,0.34361 z m 80.429856,8.54167 c -1.411984,-0.82013 -2.728725,-3.20481 -2.781625,-5.03763 -0.0537,-1.86029 0.0202,-2.14059 0.928764,-3.52664 1.558111,-2.37582 3.717531,-3.20886 6.435691,-2.48272 1.85891,0.49625 3.13707,1.52029 3.86563,3.09585 2.3717,5.1291 -3.61209,10.76037 -8.44879,7.95106 z m 4.69914,-3.6712 c 1.4162,-1.13127 0.76778,-3.31903 -1.1318,-3.81875 -2.26879,-0.59684 -3.65914,1.00495 -2.5389,2.92499 0.48816,0.83667 0.72085,0.99362 1.77738,1.19887 0.95773,0.18608 1.35947,0.12133 1.89332,-0.30511 z M 16.555895,50.090239 c -1.603451,-0.98868 -2.875191,-2.79016 -3.265051,-4.6251 -0.240561,-1.13224 0.347867,-3.51429 1.115684,-4.51662 0.632629,-0.8258 2.677982,-1.96552 4.096788,-2.28281 1.20315,-0.26906 3.398522,0.48729 4.644625,1.60017 0.908018,0.81093 1.579524,2.35376 1.841159,4.23015 0.616333,4.42025 -4.660327,7.92054 -8.433234,5.5942 z m 3.812026,-3.51687 c 2.34875,-1.37038 0.619714,-4.87816 -2.086345,-4.23267 -0.849416,0.20262 -1.782188,1.50736 -1.690848,2.36513 0.175749,1.6505 2.326544,2.71392 3.777193,1.86754 z m 72.440764,19.75235 c -1.68556,-0.91703 -2.86356,-1.92886 -2.74967,-2.36179 0.13564,-0.51563 0.87514,-0.56157 1.80785,-0.11234 1.48044,0.71305 3.89367,2.11466 4.51634,2.62313 0.66948,0.54668 0.63754,0.82057 -0.11668,1.00046 -0.75593,0.18033 -1.41845,-0.0399 -3.45784,-1.14946 z M 27.162113,47.478799 c -0.157826,-0.11504 -0.22723,-0.43621 -0.154234,-0.71369 0.155063,-0.58945 2.825547,-1.13394 4.020131,-0.81969 1.622205,0.42675 1.34807,1.93738 -0.358014,1.97285 -1.465019,0.0305 -3.153403,-0.18105 -3.507883,-0.43947 z m 76.343617,7.54933 c -2.45242,-1.67582 -3.32401,-4.61653 -2.18884,-7.38504 0.63011,-1.53675 1.28845,-2.26614 2.66695,-2.95479 2.14401,-1.07106 4.77306,-0.59708 6.86468,1.23759 3.3435,2.93279 1.23676,9.04142 -3.40716,9.8793 -1.69064,0.30505 -2.62086,0.12137 -3.93563,-0.77706 z m 3.83286,-2.68515 c 0.66223,-0.15797 1.57595,-1.50288 1.5146,-2.22936 -0.0983,-1.16368 -0.7433,-1.94721 -1.84074,-2.23591 -1.29372,-0.34033 -2.41076,0.23861 -2.76094,1.43093 -0.47806,1.62781 1.36968,3.44399 3.08708,3.03434 z m -13.578775,-1.96025 c -0.016,-0.32031 0.0917,-0.64451 0.23946,-0.72042 0.90681,-0.46586 3.925117,-0.06 4.549494,0.61174 0.722567,0.7774 -2.021854,1.40619 -3.945034,0.90387 -0.60362,-0.15775 -0.8223,-0.36369 -0.84394,-0.7952 z M 23.133692,30.769523 c -2.595272,-2.114229 -2.638933,-6.742173 -0.08513,-9.02281 1.611829,-1.439425 3.105497,-1.819486 5.322719,-1.354358 1.679377,0.352344 2.012869,0.511422 2.865245,1.367089 0.530557,0.532604 1.126355,1.396 1.324001,1.91865 0.37718,0.997405 0.418925,3.46322 0.08085,4.775963 -0.215977,0.840654 -1.421421,2.277432 -2.478189,2.955221 -1.817563,1.165751 -5.189954,0.858831 -7.029496,-0.639755 z m 5.23932,-2.690015 c 1.509649,-1.138149 1.035223,-3.899848 -0.750182,-4.369527 -0.84619,-0.222604 -2.232938,0.313731 -2.776123,1.073695 -1.382105,1.933683 1.616114,4.735945 3.526305,3.295832 z m 6.038385,3.802244 c -0.816652,-0.756589 -1.459519,-1.471815 -1.42859,-1.589385 0.03093,-0.117579 0.335582,-0.280411 0.677,-0.36185 0.672549,-0.160425 3.625824,0.837007 4.285432,1.44735 0.987366,0.913632 -0.0351,2.433422 -1.386965,2.061592 -0.364186,-0.0999 -1.330224,-0.80112 -2.146877,-1.557707 z m 55.584578,3.833327 c -0.75733,-1.00234 -0.47792,-1.59018 1.00668,-2.11792 2.15387,-0.76567 2.59269,-0.82069 2.91798,-0.36585 0.46858,0.65519 0.10975,1.31206 -1.17559,2.15206 -1.72128,1.1249 -2.11399,1.17228 -2.74907,0.33171 z m 7.86299,-0.1273 c -2.77108,-1.47301 -3.47255,-6.300948 -1.29691,-8.926121 1.423577,-1.717737 3.025958,-2.298037 5.347785,-1.936689 0.81197,0.12633 1.86768,0.48822 2.49119,0.853631 2.04989,1.201704 3.08133,4.582398 2.06068,6.754239 -0.54146,1.15216 -1.85561,2.82469 -2.60261,3.31237 -1.49122,0.97352 -4.107787,0.94848 -6.000135,-0.0574 z m 4.045515,-2.75283 c 0.63636,-0.27602 0.8723,-0.57567 1.08251,-1.374719 0.34149,-1.298134 0.17263,-1.989833 -0.67193,-2.752502 -2.02902,-1.83226 -4.612675,0.606852 -3.274394,3.091191 0.637947,1.18425 1.665314,1.55591 2.863814,1.03603 z m -23.987205,-7.29049 c -0.28763,-0.492997 0.39112,-1.912462 1.88725,-3.946768 1.73074,-2.353314 2.42058,-2.812615 2.92526,-1.947639 l 0.30886,0.529364 -1.51196,2.547888 c -0.83158,1.401337 -1.69779,2.649318 -1.9249,2.773307 -0.54161,0.295647 -1.52269,0.321191 -1.68451,0.04385 z m -14.58121,-6.558547 c -0.25853,-2.866459 -0.0722,-3.769517 0.84793,-4.109331 0.37041,-0.136795 0.75374,-0.227608 0.85185,-0.201799 0.33663,0.08856 0.35641,4.737267 0.0255,5.99514 -0.0663,0.251948 -0.43326,0.511866 -0.81552,0.577599 l -0.69501,0.119514 z m 18.68432,-0.649201 c -1.75814,-1.893369 -2.13716,-4.547785 -0.99375,-6.959711 0.48727,-1.027883 2.01795,-2.1320124 3.72668,-2.6881841 1.65251,-0.5378717 3.80649,0.02597 5.38094,1.4083021 2.62934,2.309027 1.96701,7.127323 -1.25986,9.16523 -2.09688,1.324265 -5.1471,0.912219 -6.85394,-0.925888 z m 4.08558,-1.96976 c 0.93655,-0.07338 1.90943,-0.794638 2.11235,-1.566003 0.3836,-1.458169 -1.42437,-3.031265 -3.06277,-2.664863 -1.87617,0.419567 -2.20946,2.78482 -0.55459,3.935788 0.51417,0.357606 0.56922,0.368395 1.50501,0.295098 z m -24.28542,-3.706814 c -2.12136,-1.580457 -2.95472,-3.4911524 -2.59554,-5.9509269 0.25993,-1.7800911 0.88713,-2.8319643 2.20034,-3.6901783 1.73564,-1.134269 3.20443,-1.377982 5.2641,-0.87344 1.52412,0.373337 1.82036,0.541847 2.62317,1.491869 2.65313,3.1396773 1.22999,8.0426912 -2.78615,9.5989002 -1.45057,0.562083 -3.51779,0.308955 -4.70592,-0.576224 z m 3.66389,-2.8689797 c 1.33276,-0.5596247 2.01126,-2.2578648 1.33229,-3.3346402 -0.63111,-1.0008724 -1.54144,-1.4150991 -2.59306,-1.1799254 -1.67223,0.373963 -2.32439,1.7513371 -1.46973,3.1040815 0.8112,1.2839641 1.8069,1.7983028 2.7305,1.4104841 z"
       id="path2"
       sodipodi:nodetypes="sssssssscsssssccsssssssscssssssscsssssssssssssssssssssssssssscsssssssssssssssssssssscscssssssssccsssscssscssscssssscsscccsscsssscssccssssssscsssssssscsssssssssssscssssssssscsscsscssssscsccssccssssscscccccssssscscsssccssssssssssssscssssssssssssssscsssscsscsssssssssscssssssssccsssssssssssscscssssssscscsscsccssssssssssssssssss" /><path
       style="fill:#000000"
       d="m 7.198836,115.92324 c -0.435191,-0.29409 -0.937886,-0.90112 -1.117088,-1.34896 -0.531268,-1.32763 0.04151,-1.96061 2.5324069,-2.79856 5.1886781,-1.74551 11.5999131,-4.44997 12.7059581,-5.35979 0.859245,-0.7068 1.283653,-1.26895 1.671937,-2.21457 0.158242,-0.38538 1.309921,-1.80601 2.559283,-3.15694 5.328104,-5.761223 7.994075,-9.237541 10.471461,-13.654351 2.870076,-5.11691 4.087309,-9.01047 4.746757,-15.18346 l 0.422949,-3.95915 -1.173874,-1.25948 c -1.584857,-1.70045 -2.442966,-3.15521 -3.680687,-6.23998 -2.287572,-5.7013 -2.528923,-10.71659 -0.827039,-17.18601 1.85014,-7.03299 5.011212,-11.59097 11.249019,-16.220074 2.295035,-1.70316 2.738208,-2.133854 2.367645,-2.300957 -0.613759,-0.276794 -3.431057,-5.466948 -3.421579,-6.303389 0.0041,-0.365606 -0.01593,-0.670907 -0.0446,-0.678451 -0.02868,-0.0075 -0.627738,0.09867 -1.331248,0.236044 -2.732375,0.533531 -5.653658,-1.059355 -6.321827,-3.447099 -0.190267,-0.679928 -0.326492,-1.875969 -0.302737,-2.657872 0.0367,-1.207299 0.161212,-1.608771 0.825924,-2.6628957 1.51358,-2.4002965 4.155252,-3.4676999 6.836457,-2.7623662 4.055467,1.0668544 5.250471,6.3930759 2.185282,9.7399759 -0.633339,0.691547 -1.16031,1.290756 -1.171049,1.331577 -0.01074,0.04081 0.225333,0.208973 0.524599,0.373689 1.267764,0.697771 3.09304,4.51683 3.127413,6.543562 0.0071,0.41647 0.35749,0.360604 2.376466,-0.378868 5.44944,-1.995901 10.22595,-2.53086 15.12896,-1.694412 3.14874,0.537175 4.56131,0.991323 8.17178,2.627229 1.76204,0.798381 2.6139,1.391354 4.5092,3.138825 4.68985,4.324052 7.09251,7.587512 8.73626,11.866182 1.30902,3.40735 1.90054,6.55152 1.85684,9.86977 -0.0899,6.82667 -2.29804,12.61345 -6.37394,16.70406 l -1.6829,1.68895 0.19621,1.35435 c 0.10792,0.74489 0.17397,1.77939 0.1468,2.29889 -0.0897,1.71578 0.74419,7.95516 1.38183,10.33868 0.92071,3.44169 2.24597,6.46153 4.87151,11.10065 3.70411,6.544821 7.98834,11.963551 11.086505,14.022301 0.83106,0.55225 3.22073,1.94133 5.31039,3.08685 4.01592,2.2015 4.98425,2.89675 5.06537,3.63691 0.0849,0.77503 -0.26078,1.71081 -0.92185,2.49518 -1.04425,1.23901 -1.85561,1.1412 -6.67297,-0.80444 -2.27754,-0.91987 -4.572961,-1.90239 -5.100918,-2.1834 -0.527957,-0.281 -2.770507,-1.11621 -4.983447,-1.85601 -9.03806,-3.0215 -16.49975,-6.92153 -21.67765,-11.33039 -2.06832,-1.761104 -2.56595,-2.070411 -2.67347,-1.661694 -0.0328,0.1247 -0.71779,0.809567 -1.52219,1.521914 -1.81241,1.60503 -1.80024,1.64533 1.27042,4.20997 3.14035,2.62284 5.462,4.02792 10.3262,6.24953 10.30441,4.7063 10.89465,5.02706 10.68901,5.80875 -0.30659,1.16544 -3.00263,1.73197 -6.77079,1.42278 -2.21406,-0.18168 -2.97601,-0.35644 -5.01438,-1.15008 -4.39772,-1.71228 -13.11226,-7.23601 -15.32503,-9.71382 -0.98617,-1.10428 -1.07305,-1.12832 -1.74639,-0.4832 -1.72795,1.65552 -9.109,6.02777 -13.288226,7.87143 -6.367378,2.80895 -9.556945,3.51996 -15.252079,3.39995 -2.839295,-0.0598 -3.013429,-0.11842 -3.663687,-1.23293 -1.169762,-2.00491 0.006,-2.91693 4.738745,-3.6758 6.788044,-1.08842 9.773068,-2.09381 16.698892,-5.6244 3.324405,-1.69468 7.202685,-4.58592 7.298475,-5.44097 0.0327,-0.2919 -0.40812,-0.98221 -1.0191,-1.59587 l -1.07672,-1.081427 -0.53523,0.503007 c -1.36103,1.27914 -10.957789,6.09482 -15.468539,7.76216 -3.249676,1.2012 -8.931496,2.75837 -12.724197,3.48721 -1.163913,0.22367 -3.391242,0.80755 -4.949617,1.29752 -1.558376,0.48996 -3.703206,1.15526 -4.766293,1.47844 -1.063083,0.32318 -2.709129,0.9644 -3.657874,1.42494 -1.817759,0.88235 -3.6745264,1.32899 -4.5270371,1.08894 -0.2801907,-0.0789 -0.8654969,-0.38407 -1.3006999,-0.67814 z m 28.635706,-12.93027 c 2.172124,-0.72315 5.203172,-1.86919 6.735657,-2.54674 3.245563,-1.434934 9.030439,-4.687983 9.150896,-5.145893 0.0456,-0.173227 -0.275115,-0.733504 -0.712634,-1.245078 -0.779093,-0.91093 -4.541448,-7.34295 -5.652722,-9.66373 -0.30913,-0.64559 -0.673665,-1.20316 -0.810074,-1.23905 -0.136409,-0.0359 -0.456743,0.46464 -0.711851,1.11227 -1.056662,2.68249 -4.791487,9.12101 -6.570096,11.326278 -1.00448,1.245441 -2.020302,2.459635 -2.257381,2.698215 -0.237081,0.238567 -1.086243,1.119754 -1.887024,1.958168 -0.800784,0.83843 -1.656562,1.65976 -1.901731,1.82519 -0.537323,0.36257 -2.459866,2.52001 -2.549597,2.8611 -0.08476,0.32221 2.349439,-0.33699 7.166557,-1.94073 z m 27.628533,-4.132401 c 0.36935,-0.16981 0.75694,-0.467977 0.86131,-0.662577 0.10434,-0.1946 0.46936,-0.805987 0.81108,-1.358654 0.76523,-1.237531 0.65267,-1.495751 -1.36898,-3.140409 -1.69098,-1.37565 -2.91122,-2.86589 -6.62351,-8.08907 -3.09745,-4.35811 -5.08771,-7.51861 -5.742134,-9.11842 -0.37526,-0.91739 -0.61118,-1.12342 -1.816924,-1.58674 -0.762123,-0.29282 -1.410525,-0.43796 -1.440901,-0.32249 -0.09183,0.34909 1.03155,3.91845 1.878696,5.96924 1.945513,4.70978 4.786513,9.42332 7.598013,12.60601 0.57973,0.65625 1.58102,1.956831 2.22511,2.890175 2.06245,2.988682 2.49853,3.327692 3.61826,2.812885 z m 26.87207,5.653181 c 0.0352,-0.13365 -0.90431,-1.3594 -2.08769,-2.72387 -1.20066,-1.38439 -2.8656,-3.732898 -3.76706,-5.313689 -1.96353,-3.443262 -4.57992,-9.265972 -5.33967,-11.883312 -0.62188,-2.14247 -1.01711,-3.15924 -1.17589,-3.02522 -0.0581,0.0489 -0.89173,1.29804 -1.85265,2.77568 -0.96092,1.47764 -2.3818,3.56681 -3.15752,4.64261 -0.77571,1.0758 -1.58833,2.30334 -1.80582,2.72787 l -0.39543,0.77187 2.62898,2.299081 c 3.35278,2.932065 5.63855,4.598956 8.92973,6.51203 3.21847,1.87081 7.88492,3.7419 8.02302,3.21695 z M 68.736475,85.383799 c 1.95543,-2.74807 5.46222,-9.47784 5.00188,-9.59894 -0.0772,-0.0203 -0.71479,0.28302 -1.41688,0.67406 -0.70211,0.39104 -1.88928,0.77074 -2.63817,0.84376 -0.74888,0.073 -2.64243,0.32168 -4.20789,0.55256 -1.56545,0.23086 -3.44793,0.34447 -4.18327,0.25246 -0.73536,-0.092 -1.4989,-0.11789 -1.69678,-0.0575 -0.53242,0.16255 0.88294,2.55306 3.36752,5.68769 2.39948,3.02728 3.56829,4.19879 3.9607,3.96985 0.14974,-0.0874 0.96554,-1.13316 1.81289,-2.32398 z m -5.21764,-13.09081 c 11.25034,-0.82815 19.88071,-8.81107 21.36802,-19.76501 0.63401,-4.66948 -0.0924,-8.58167 -2.33185,-12.55819 -3.27912,-5.82268 -7.97815,-9.44356 -14.44463,-11.130442 -5.76194,-1.503051 -11.68123,-0.661146 -17.278006,2.457562 -3.415868,1.90343 -7.055608,6.04766 -8.695904,9.90121 -1.396617,3.28108 -2.212566,7.58669 -1.993214,10.51785 0.578411,7.72928 5.167942,14.48217 12.273764,18.05924 2.50426,1.26064 8.79589,2.68753 11.10182,2.51778 z m -4.40521,-11.01956 c -0.63816,-0.48791 -0.98216,-2.0011 -0.64837,-2.85212 0.27655,-0.70511 0.33659,-0.71736 4.15754,-0.84816 1.07365,-0.0368 2.3003,0.0248 2.72588,0.13672 1.66625,0.43833 1.67945,2.63429 0.0212,3.52757 -1.4338,0.77238 -5.26428,0.79443 -6.25626,0.036 z m -10.72335,-7.90857 c -1.480232,-1.34582 -1.879169,-2.73886 -1.354985,-4.73145 0.436992,-1.66115 1.401392,-2.6907 2.995328,-3.19765 2.647967,-0.84221 5.334827,0.61243 5.939377,3.21548 0.16404,0.70633 0.19602,1.67283 0.0711,2.14778 -0.25954,0.9866 -1.24404,2.36682 -2.07536,2.90954 -1.56545,1.02198 -4.255763,0.85614 -5.57544,-0.3437 z m 23.43429,0.86844 c -1.93715,-1.19442 -2.56345,-2.6382 -2.17702,-5.01849 0.25162,-1.54994 1.4413,-3.00776 2.86101,-3.50587 1.11281,-0.39043 3.13181,-0.0127 4.27315,0.79954 1.43037,1.01789 2.25291,3.20349 1.82203,4.84139 -0.46034,1.7499 -2.69486,3.3821 -4.66709,3.40905 -1.15279,0.0157 -1.2891,-0.0182 -2.11208,-0.52563 z M 44.699907,14.39876 c 1.408685,-0.821899 1.526608,-2.77433 0.227852,-3.77248 -2.062634,-1.5852344 -4.809381,0.644956 -3.518761,2.857008 0.673348,1.15409 2.168882,1.570118 3.290911,0.915463 z M 20.754879,86.635289 c -0.825921,-0.65187 -1.838496,-2.60076 -2.017216,-3.88252 -0.149943,-1.07539 0.478284,-3.71576 1.086609,-4.56686 0.621167,-0.86906 2.799993,-2.20277 3.835703,-2.34791 1.223073,-0.1714 3.068407,0.36816 4.644476,1.35799 l 1.291364,0.81104 0.469127,2.11664 c 0.350552,1.58165 0.387381,2.4274 0.145701,3.3461 -0.412345,1.56746 -1.455814,3.10591 -2.56915,3.78785 -1.573936,0.96407 -5.303677,0.62703 -6.886614,-0.62233 z m 4.801035,-2.58388 c 1.379492,-0.80487 1.439302,-2.70497 0.120136,-3.81677 -1.499168,-1.26351 -3.176462,-0.73221 -3.675315,1.16409 -0.359825,1.36781 0.305332,2.46928 1.715122,2.84015 0.770217,0.20261 1.256356,0.15308 1.840057,-0.18747 z m 67.353261,5.97589 c -2.15847,-2.25462 -1.6048,-7.0722 1.02591,-8.92676 1.26265,-0.89014 2.30817,-1.03692 4.075007,-0.57212 3.261718,0.85805 5.058188,3.88746 4.246438,7.16084 -0.41394,1.66902 -1.51775,2.83979 -3.426461,3.63415 -0.982044,0.40871 -1.411974,0.41425 -3.099084,0.0399 -1.70667,-0.37865 -2.06996,-0.55074 -2.82181,-1.33601 z m 5.254817,-2.36618 c 0.977994,-0.68947 1.060204,-0.8563 0.863884,-1.75322 -0.400467,-1.82952 -2.081971,-2.61637 -3.482011,-1.62939 -1.01354,0.71452 -1.06271,0.83283 -0.81196,1.95408 0.38643,1.72799 2.03273,2.41362 3.430087,1.42853 z M 14.913727,68.097799 c -3.368273,-2.95148 -2.210099,-8.17335 2.173643,-9.80033 1.096893,-0.40711 1.598099,-0.42171 3.166446,-0.0922 l 1.863278,0.39141 1.047444,1.19057 c 2.467221,2.80434 2.301988,6.35691 -0.405373,8.71575 -1.97963,1.72478 -5.629776,1.53624 -7.845428,-0.40523 z m 5.032417,-2.38105 c 1.719072,-1.2119 1.457995,-3.42566 -0.463626,-3.93117 -1.133708,-0.29824 -2.116839,0.0933 -2.692793,1.07244 -0.551335,0.93729 -0.442841,1.80327 0.315137,2.51512 0.988019,0.92792 1.862439,1.03366 2.841282,0.34361 z m 80.429856,8.54167 c -1.411984,-0.82013 -2.728725,-3.20481 -2.781625,-5.03763 -0.0537,-1.86029 0.0202,-2.14059 0.928764,-3.52664 1.558111,-2.37582 3.717531,-3.20886 6.435691,-2.48272 1.85891,0.49625 3.13707,1.52029 3.86563,3.09585 2.3717,5.1291 -3.61209,10.76037 -8.44879,7.95106 z m 4.69914,-3.6712 c 1.4162,-1.13127 0.76778,-3.31903 -1.1318,-3.81875 -2.26879,-0.59684 -3.65914,1.00495 -2.5389,2.92499 0.48816,0.83667 0.72085,0.99362 1.77738,1.19887 0.95773,0.18608 1.35947,0.12133 1.89332,-0.30511 z M 16.555895,50.090239 c -1.603451,-0.98868 -2.875191,-2.79016 -3.265051,-4.6251 -0.240561,-1.13224 0.347867,-3.51429 1.115684,-4.51662 0.632629,-0.8258 2.677982,-1.96552 4.096788,-2.28281 1.20315,-0.26906 3.398522,0.48729 4.644625,1.60017 0.908018,0.81093 1.579524,2.35376 1.841159,4.23015 0.616333,4.42025 -4.660327,7.92054 -8.433234,5.5942 z m 3.812026,-3.51687 c 2.34875,-1.37038 0.619714,-4.87816 -2.086345,-4.23267 -0.849416,0.20262 -1.782188,1.50736 -1.690848,2.36513 0.175749,1.6505 2.326544,2.71392 3.777193,1.86754 z m 72.440764,19.75235 c -1.68556,-0.91703 -2.86356,-1.92886 -2.74967,-2.36179 0.13564,-0.51563 0.87514,-0.56157 1.80785,-0.11234 1.48044,0.71305 3.89367,2.11466 4.51634,2.62313 0.66948,0.54668 0.63754,0.82057 -0.11668,1.00046 -0.75593,0.18033 -1.41845,-0.0399 -3.45784,-1.14946 z M 27.162113,47.478799 c -0.157826,-0.11504 -0.22723,-0.43621 -0.154234,-0.71369 0.155063,-0.58945 2.825547,-1.13394 4.020131,-0.81969 1.622205,0.42675 1.34807,1.93738 -0.358014,1.97285 -1.465019,0.0305 -3.153403,-0.18105 -3.507883,-0.43947 z m 76.343617,7.54933 c -2.45242,-1.67582 -3.32401,-4.61653 -2.18884,-7.38504 0.63011,-1.53675 1.28845,-2.26614 2.66695,-2.95479 2.14401,-1.07106 4.77306,-0.59708 6.86468,1.23759 3.3435,2.93279 1.23676,9.04142 -3.40716,9.8793 -1.69064,0.30505 -2.62086,0.12137 -3.93563,-0.77706 z m 3.83286,-2.68515 c 0.66223,-0.15797 1.57595,-1.50288 1.5146,-2.22936 -0.0983,-1.16368 -0.7433,-1.94721 -1.84074,-2.23591 -1.29372,-0.34033 -2.41076,0.23861 -2.76094,1.43093 -0.47806,1.62781 1.36968,3.44399 3.08708,3.03434 z m -13.578775,-1.96025 c -0.016,-0.32031 0.0917,-0.64451 0.23946,-0.72042 0.90681,-0.46586 3.925117,-0.06 4.549494,0.61174 0.722567,0.7774 -2.021854,1.40619 -3.945034,0.90387 -0.60362,-0.15775 -0.8223,-0.36369 -0.84394,-0.7952 z M 23.133692,30.769523 c -2.595272,-2.114229 -2.638933,-6.742173 -0.08513,-9.02281 1.611829,-1.439425 3.105497,-1.819486 5.322719,-1.354358 1.679377,0.352344 2.012869,0.511422 2.865245,1.367089 0.530557,0.532604 1.126355,1.396 1.324001,1.91865 0.37718,0.997405 0.418925,3.46322 0.08085,4.775963 -0.215977,0.840654 -1.421421,2.277432 -2.478189,2.955221 -1.817563,1.165751 -5.189954,0.858831 -7.029496,-0.639755 z m 5.23932,-2.690015 c 1.509649,-1.138149 1.035223,-3.899848 -0.750182,-4.369527 -0.84619,-0.222604 -2.232938,0.313731 -2.776123,1.073695 -1.382105,1.933683 1.616114,4.735945 3.526305,3.295832 z m 6.038385,3.802244 c -0.816652,-0.756589 -1.459519,-1.471815 -1.42859,-1.589385 0.03093,-0.117579 0.335582,-0.280411 0.677,-0.36185 0.672549,-0.160425 3.625824,0.837007 4.285432,1.44735 0.987366,0.913632 -0.0351,2.433422 -1.386965,2.061592 -0.364186,-0.0999 -1.330224,-0.80112 -2.146877,-1.557707 z m 55.584578,3.833327 c -0.75733,-1.00234 -0.47792,-1.59018 1.00668,-2.11792 2.15387,-0.76567 2.59269,-0.82069 2.91798,-0.36585 0.46858,0.65519 0.10975,1.31206 -1.17559,2.15206 -1.72128,1.1249 -2.11399,1.17228 -2.74907,0.33171 z m 7.86299,-0.1273 c -2.77108,-1.47301 -3.47255,-6.300948 -1.29691,-8.926121 1.423577,-1.717737 3.025958,-2.298037 5.347785,-1.936689 0.81197,0.12633 1.86768,0.48822 2.49119,0.853631 2.04989,1.201704 3.08133,4.582398 2.06068,6.754239 -0.54146,1.15216 -1.85561,2.82469 -2.60261,3.31237 -1.49122,0.97352 -4.107787,0.94848 -6.000135,-0.0574 z m 4.045515,-2.75283 c 0.63636,-0.27602 0.8723,-0.57567 1.08251,-1.374719 0.34149,-1.298134 0.17263,-1.989833 -0.67193,-2.752502 -2.02902,-1.83226 -4.612675,0.606852 -3.274394,3.091191 0.637947,1.18425 1.665314,1.55591 2.863814,1.03603 z m -23.987205,-7.29049 c -0.28763,-0.492997 0.39112,-1.912462 1.88725,-3.946768 1.73074,-2.353314 2.42058,-2.812615 2.92526,-1.947639 l 0.30886,0.529364 -1.51196,2.547888 c -0.83158,1.401337 -1.69779,2.649318 -1.9249,2.773307 -0.54161,0.295647 -1.52269,0.321191 -1.68451,0.04385 z m -14.58121,-6.558547 c -0.25853,-2.866459 -0.0722,-3.769517 0.84793,-4.109331 0.37041,-0.136795 0.75374,-0.227608 0.85185,-0.201799 0.33663,0.08856 0.35641,4.737267 0.0255,5.99514 -0.0663,0.251948 -0.43326,0.511866 -0.81552,0.577599 l -0.69501,0.119514 z m 18.68432,-0.649201 c -1.75814,-1.893369 -2.13716,-4.547785 -0.99375,-6.959711 0.48727,-1.027883 2.01795,-2.1320124 3.72668,-2.6881841 1.65251,-0.5378717 3.80649,0.02597 5.38094,1.4083021 2.62934,2.309027 1.96701,7.127323 -1.25986,9.16523 -2.09688,1.324265 -5.1471,0.912219 -6.85394,-0.925888 z m 4.08558,-1.96976 c 0.93655,-0.07338 1.90943,-0.794638 2.11235,-1.566003 0.3836,-1.458169 -1.42437,-3.031265 -3.06277,-2.664863 -1.87617,0.419567 -2.20946,2.78482 -0.55459,3.935788 0.51417,0.357606 0.56922,0.368395 1.50501,0.295098 z m -24.28542,-3.706814 c -2.12136,-1.580457 -2.95472,-3.4911524 -2.59554,-5.9509269 0.25993,-1.7800911 0.88713,-2.8319643 2.20034,-3.6901783 1.73564,-1.134269 3.20443,-1.377982 5.2641,-0.87344 1.52412,0.373337 1.82036,0.541847 2.62317,1.491869 2.65313,3.1396773 1.22999,8.0426912 -2.78615,9.5989002 -1.45057,0.562083 -3.51779,0.308955 -4.70592,-0.576224 z m 3.66389,-2.8689797 c 1.33276,-0.5596247 2.01126,-2.2578648 1.33229,-3.3346402 -0.63111,-1.0008724 -1.54144,-1.4150991 -2.59306,-1.1799254 -1.67223,0.373963 -2.32439,1.7513371 -1.46973,3.1040815 0.8112,1.2839641 1.8069,1.7983028 2.7305,1.4104841 z"
       id="path3"
       sodipodi:nodetypes="sssssssscsssssccsssssssscssssssscsssssssssssssssssssssssssssscsssssssssssssssssssssscscssssssssccsssscssscssscssssscsscccsscsssscssccssssssscsssssssscsssssssssssscssssssssscsscsscssssscsccssccssssscscccccssssscscsssccssssssssssssscssssssssssssssscsssscsscsssssssssscssssssssccsssssssssssscscssssssscscsscsccssssssssssssssssss" /><path
       d="m 30.295406,61.271129 c -1.85274,0.49946 -3.403534,0.58006 -3.619855,0.18814 -0.257657,-0.46679 0.245845,-1.01035 1.231192,-1.32857 1.563517,-0.50554 4.277289,-1.15643 5.078819,-1.21811 0.86178,-0.0663 1.027674,0.15395 0.605947,0.80459 -0.422669,0.65215 -1.054159,0.94993 -3.295801,1.55424 z"
       style="fill:#000000"
       id="path1-3"
       sodipodi:nodetypes="ssssss"
       inkscape:transform-center-x="-46.45189"
       inkscape:transform-center-y="4.9332224" /></g></svg>
